<?xml version="1.0" encoding="UTF-8"?>
<svg version="1.1" xmlns="http://www.w3.org/2000/svg" width="512" height="512">
<path d="M0 0 C1.16619873 0.27602051 1.16619873 0.27602051 2.35595703 0.55761719 C56.45487701 13.86405761 105.70904933 51.74460401 134.6875 98.9375 C136.49006411 101.940491 138.25427368 104.96366408 140 108 C140.40347656 108.69706055 140.80695313 109.39412109 141.22265625 110.11230469 C147.7936424 121.58984402 152.64544533 133.52766473 157 146 C157.25265625 146.72074707 157.5053125 147.44149414 157.765625 148.18408203 C173.2022636 192.93961408 173.11116944 244.18012764 158 289 C157.62319092 290.12220947 157.62319092 290.12220947 157.23876953 291.26708984 C143.43954014 331.73525245 118.78858636 368.51455542 85 395 C84.02675781 395.79019531 83.05351562 396.58039063 82.05078125 397.39453125 C73.19948873 404.44669028 63.79466906 410.34654494 54 416 C53.30922363 416.40105957 52.61844727 416.80211914 51.90673828 417.21533203 C32.8298629 428.16168263 12.38414348 435.13079222 -9 440 C-9.71140137 440.16725586 -10.42280273 440.33451172 -11.15576172 440.50683594 C-66.65525894 453.33032225 -128.4979308 441.06301618 -176.53710938 411.24414062 C-197.85422519 397.62328468 -217.37956327 380.92764267 -233 361 C-233.79019531 360.02675781 -234.58039063 359.05351562 -235.39453125 358.05078125 C-242.44638114 349.19987674 -248.3489211 339.79562484 -254 330 C-254.40637695 329.29858887 -254.81275391 328.59717773 -255.23144531 327.87451172 C-261.79891587 316.40177516 -266.6474334 304.46664105 -271 292 C-271.25265625 291.27925293 -271.5053125 290.55850586 -271.765625 289.81591797 C-287.54783894 244.05845742 -287.13057845 191.57374273 -271 146 C-270.78794922 145.37963867 -270.57589844 144.75927734 -270.35742188 144.12011719 C-261.96234137 119.62402408 -249.48917102 96.97288539 -233 77 C-232.53094238 76.42942871 -232.06188477 75.85885742 -231.57861328 75.27099609 C-221.70833544 63.337495 -211.21895658 52.57792356 -199 43 C-198.02675781 42.20980469 -197.05351562 41.41960937 -196.05078125 40.60546875 C-187.19987674 33.55361886 -177.79562484 27.6510789 -168 22 C-167.29858887 21.59362305 -166.59717773 21.18724609 -165.87451172 20.76855469 C-154.39557776 14.19753648 -142.46104517 9.38314385 -130 5 C-129.31647461 4.75266113 -128.63294922 4.50532227 -127.92871094 4.25048828 C-87.17055335 -10.38359137 -41.68463707 -9.87170351 0 0 Z M-162.15405273 109.47070312 C-164.58836399 116.7490479 -159.01690674 127.40746866 -156.703125 134.3671875 C-156.27328954 135.6707421 -155.84386102 136.97443096 -155.41481018 138.27824402 C-154.50430587 141.04252485 -153.59119951 143.80592609 -152.67593384 146.56863403 C-151.23230202 150.92639801 -149.79464331 155.28611727 -148.3581543 159.64624023 C-146.91328412 164.03118842 -145.46825719 168.41608332 -144.02128601 172.80033875 C-140.25553487 184.21151986 -136.52336198 195.63334811 -132.8125 207.0625 C-131.71532186 210.43895763 -130.61758929 213.81523468 -129.51953125 217.19140625 C-129.10572708 218.46374115 -129.10572708 218.46374115 -128.68356323 219.76177979 C-124.42089905 232.86083038 -120.12803841 245.95003386 -115.84020996 259.04086304 C-111.31685039 272.85132449 -106.80338503 286.66487453 -102.3137207 300.48632812 C-100.34520403 306.54589927 -98.37054035 312.60345915 -96.39338684 318.66021729 C-95.0529349 322.7672316 -93.71557894 326.87520286 -92.38476562 330.98535156 C-91.10743999 334.92942334 -89.8214499 338.87056368 -88.52877808 342.80963135 C-88.05740333 344.25108893 -87.58915602 345.69357361 -87.1242981 347.137146 C-86.49358087 349.09428806 -85.85178665 351.04744585 -85.20703125 353 C-84.8510083 354.093125 -84.49498535 355.18625 -84.12817383 356.3125 C-82.76141391 359.76271236 -82.76141391 359.76271236 -80 362 C-77.10564454 362.31058538 -74.43089018 362.44417783 -71.53515625 362.43359375 C-70.70543808 362.4388356 -69.87571991 362.44407745 -69.02085876 362.44947815 C-67.26660277 362.45589946 -65.51230372 362.4545599 -63.75805664 362.44604492 C-61.075553 362.43754138 -58.39518345 362.46628191 -55.71289062 362.49804688 C-54.00781314 362.49965917 -52.30273188 362.49908081 -50.59765625 362.49609375 C-49.39593529 362.51294472 -49.39593529 362.51294472 -48.16993713 362.53013611 C-44.93496986 362.48971665 -42.51962022 362.31280648 -39.71875 360.62670898 C-37.03109453 356.5192537 -35.52917443 352.08983808 -33.90234375 347.4765625 C-33.51598755 346.40899719 -33.12963135 345.34143188 -32.73156738 344.24151611 C-31.45573908 340.706575 -30.19648747 337.16597057 -28.9375 333.625 C-28.04319316 331.13529405 -27.1480799 328.64587764 -26.25219727 326.15673828 C-19.43410871 307.18556375 -12.74466788 288.16807783 -6.07788086 269.14331055 C-0.61349138 253.55236954 4.91642206 237.98614971 10.5 222.4375 C10.88897461 221.3542746 11.27794922 220.27104919 11.67871094 219.15499878 C13.64663449 213.67589337 15.61577731 208.1972271 17.58544922 202.71875 C20.08256302 195.77207382 22.57500761 188.82372764 25.06640625 181.875 C25.48375031 180.7112233 25.90109436 179.54744659 26.33108521 178.34840393 C28.3776673 172.64056799 30.42248678 166.9321106 32.46386719 161.22241211 C35.75829879 152.01174155 39.05873984 142.80471429 42.44921875 133.62890625 C42.93969461 132.29251754 43.42986436 130.95601643 43.91967773 129.61938477 C44.76945003 127.30742398 45.62870774 124.99891296 46.50024414 122.69506836 C46.85594482 121.7231958 47.21164551 120.75132324 47.578125 119.75 C48.03300293 118.53570312 48.03300293 118.53570312 48.49707031 117.296875 C49.11104065 114.49287841 48.9060919 112.71713597 48 110 C44.21964863 107.47976575 41.13934385 107.65900718 36.75390625 107.62890625 C35.94638412 107.61987778 35.138862 107.6108493 34.30686951 107.60154724 C32.59971829 107.58704676 30.89251153 107.5781585 29.18530273 107.57446289 C26.57505707 107.56255727 23.96716917 107.51336691 21.35742188 107.46289062 C19.6979282 107.45342715 18.03842001 107.44619175 16.37890625 107.44140625 C15.59963272 107.42187393 14.82035919 107.40234161 14.01747131 107.38221741 C11.52594194 107.34850942 11.52594194 107.34850942 8 108 C4.87938412 111.24703129 3.26493194 114.3336313 1.85620117 118.57666016 C1.4838887 119.68048538 1.11157623 120.78431061 0.72798157 121.92158508 C0.33692734 123.11535263 -0.05412689 124.30912018 -0.45703125 125.5390625 C-0.87982951 126.80376737 -1.30362441 128.06813943 -1.72834778 129.3321991 C-2.63056844 132.02332767 -3.52655663 134.71641619 -4.4175415 137.4112854 C-5.82509652 141.6679052 -7.24656142 145.91978846 -8.67138672 150.1706543 C-8.90860317 150.8784286 -9.14581963 151.58620291 -9.39022446 152.31542492 C-9.8688271 153.74329071 -10.34748124 155.17113924 -10.82618713 156.59897041 C-11.54348166 158.7398121 -12.2594712 160.88108668 -12.97521973 163.02244568 C-16.75510815 174.32269857 -20.65730797 185.57692893 -24.625 196.8125 C-28.89185609 208.89980679 -33.02414315 221.02591151 -37.0390625 233.19921875 C-37.47570495 234.52099865 -37.91240125 235.84276076 -38.34915161 237.164505 C-40.9428591 245.01775034 -40.9428591 245.01775034 -43.51348877 252.87857056 C-44.6942975 256.50485519 -45.88545117 260.12760389 -47.078125 263.75 C-47.43057281 264.84467087 -47.78302063 265.93934174 -48.14614868 267.06718445 C-48.47851532 268.07110733 -48.81088196 269.07503021 -49.15332031 270.109375 C-49.43894836 270.98561523 -49.72457642 271.86185547 -50.01885986 272.76464844 C-51.38808175 275.88417456 -52.97169742 277.48584871 -56 279 C-59.64760099 279.4863468 -61.38626822 279.43402913 -64.42553711 277.28466797 C-68.54135197 272.8862506 -69.69932668 266.69721258 -71.37890625 261.0703125 C-71.78641754 259.74725326 -72.19540131 258.42464678 -72.60574341 257.10246277 C-73.48274834 254.26658007 -74.35006816 251.42798648 -75.20980835 248.58682251 C-76.57398231 244.07934707 -77.95931858 239.57856277 -79.34887695 235.07885742 C-80.78951196 230.4112268 -82.22929765 225.7433553 -83.66221619 221.073349 C-86.88085134 210.58788373 -90.15246257 200.12047072 -93.4765625 189.66796875 C-93.69621862 188.9772056 -93.91587475 188.28644245 -94.14218712 187.57474709 C-95.65486519 182.81989032 -97.17085243 178.06609182 -98.6875 173.3125 C-107.82703328 144.65921939 -107.82703328 144.65921939 -111.33203125 133.09375 C-111.69019173 131.91826851 -111.69019173 131.91826851 -112.05558777 130.71903992 C-113.09006948 127.3231257 -114.11343608 123.92552235 -115.11206055 120.51879883 C-115.44633057 119.41560303 -115.78060059 118.31240723 -116.125 117.17578125 C-116.39570313 116.25708252 -116.66640625 115.33838379 -116.9453125 114.3918457 C-118.27569309 111.37477657 -119.28636663 109.91703566 -122 108 C-124.99192313 107.60240224 -127.60796901 107.43853425 -130.59765625 107.46875 C-131.42833115 107.4649231 -132.25900604 107.46109619 -133.11485291 107.45715332 C-134.86735245 107.45443603 -136.61989267 107.46178453 -138.37231445 107.47851562 C-141.05706899 107.49995663 -143.73915594 107.47869565 -146.42382812 107.453125 C-148.12761008 107.45576778 -149.83139037 107.46089173 -151.53515625 107.46875 C-152.33832779 107.46065308 -153.14149933 107.45255615 -153.9690094 107.44421387 C-157.18264616 107.49840972 -159.46257308 107.63306588 -162.15405273 109.47070312 Z " fill="#000000" transform="translate(313,37)"/>
</svg>
